<svg width="56" height="64" viewBox="0 0 56 64" fill="none" xmlns="http://www.w3.org/2000/svg">
<g id="Frame" clip-path="url(#clip0_2_236)">
<g id="Layer 2">
<g id="business idea">
<path id="Vector" fill-rule="evenodd" clip-rule="evenodd" d="M47.87 28.0002C47.9294 25.3487 47.4585 22.7121 46.4849 20.2451C45.5113 17.7781 44.0546 15.5305 42.2004 13.6342C40.3461 11.7379 38.1317 10.2312 35.6872 9.20258C33.2426 8.17393 30.6172 7.64404 27.965 7.64404C25.3128 7.64404 22.6874 8.17393 20.2428 9.20258C17.7983 10.2312 15.5839 11.7379 13.7296 13.6342C11.8754 15.5305 10.4187 17.7781 9.44509 20.2451C8.47147 22.7121 8.00056 25.3487 8.05999 28.0002C8.05999 36.8902 14.17 44.0002 19.56 50.2002L20.65 51.4702C20.0324 51.7981 19.5154 52.2876 19.1544 52.8865C18.7933 53.4853 18.6017 54.171 18.6 54.8702V60.1502C18.6079 61.1723 19.0188 62.15 19.7434 62.8709C20.468 63.5918 21.4479 63.9976 22.47 64.0002H33.47C34.499 64.0002 35.4859 63.5914 36.2136 62.8638C36.9412 62.1362 37.35 61.1493 37.35 60.1202V54.8402C37.3482 54.1372 37.1544 53.448 36.7896 52.8471C36.4248 52.2461 35.9028 51.7562 35.28 51.4302L36.28 50.1902C41.74 43.7802 47.87 36.5102 47.87 28.0002ZM10.06 28.0002C10.0036 25.6133 10.425 23.2392 11.2994 21.0175C12.1739 18.7958 13.4838 16.7714 15.152 15.0633C16.8202 13.3552 18.8131 11.9978 21.0135 11.0711C23.2139 10.1444 25.5774 9.66705 27.965 9.66705C30.3526 9.66705 32.7161 10.1444 34.9165 11.0711C37.1169 11.9978 39.1098 13.3552 40.778 15.0633C42.4462 16.7714 43.7561 18.7958 44.6305 21.0175C45.505 23.2392 45.9264 25.6133 45.87 28.0002C45.87 35.8202 39.99 42.7902 34.81 48.9402L33.08 51.0002H22.87L21.06 48.9002C15.65 42.5902 10.06 36.1102 10.06 28.0002ZM33.49 62.0002H22.49C22.2431 62.0002 21.9986 61.9516 21.7705 61.8571C21.5425 61.7626 21.3352 61.6242 21.1606 61.4496C20.9861 61.275 20.8476 61.0678 20.7531 60.8397C20.6586 60.6116 20.61 60.3671 20.61 60.1202V58.4802H35.37V60.1202C35.37 60.3671 35.3214 60.6116 35.2269 60.8397C35.1324 61.0678 34.9939 61.275 34.8194 61.4496C34.6448 61.6242 34.4375 61.7626 34.2094 61.8571C33.9813 61.9516 33.7369 62.0002 33.49 62.0002ZM35.37 56.4802H20.59V54.8402C20.6005 54.3486 20.8031 53.8806 21.1546 53.5366C21.506 53.1927 21.9782 53.0001 22.47 53.0002H33.47C33.9686 53.0002 34.4468 53.1983 34.7994 53.5509C35.1519 53.9034 35.35 54.3816 35.35 54.8802L35.37 56.4802Z" fill="#FA6444"/>
<path id="Vector_2" fill-rule="evenodd" clip-rule="evenodd" d="M27.86 42.12C30.6772 42.1219 33.4319 41.2898 35.777 39.7287C38.1221 38.1675 39.9527 35.9472 41.038 33.3474C42.1233 30.7477 42.4148 27.8848 41.8758 25.1197C41.3367 22.3545 39.9913 19.8108 38.009 17.809C36.0267 15.8072 33.4962 14.437 30.7364 13.871C27.9767 13.305 25.1111 13.5685 22.5009 14.6284C19.8907 15.6882 17.6525 17.497 16.0686 19.8267C14.4846 22.1565 13.6257 24.9029 13.6 27.72C13.5843 27.7563 13.5762 27.7954 13.5762 27.835C13.5762 27.8746 13.5843 27.9137 13.6 27.95C13.629 31.7147 15.1435 35.3157 17.8141 37.9694C20.4847 40.6231 24.0952 42.1148 27.86 42.12ZM26.86 15.64V17.35C26.86 17.6152 26.9654 17.8696 27.1529 18.0571C27.3404 18.2446 27.5948 18.35 27.86 18.35C28.1252 18.35 28.3796 18.2446 28.5671 18.0571C28.7546 17.8696 28.86 17.6152 28.86 17.35V15.64C31.7646 15.8701 34.4925 17.1264 36.5556 19.1839C38.6186 21.2415 39.8821 23.966 40.12 26.87H38.39C38.1248 26.87 37.8704 26.9754 37.6829 27.1629C37.4954 27.3504 37.39 27.6048 37.39 27.87C37.39 28.1352 37.4954 28.3896 37.6829 28.5771C37.8704 28.7646 38.1248 28.87 38.39 28.87H40.12C39.8757 31.767 38.6106 34.4832 36.5503 36.5344C34.4899 38.5856 31.7681 39.8386 28.87 40.07V38.36C28.87 38.0948 28.7646 37.8404 28.5771 37.6529C28.3896 37.4654 28.1352 37.36 27.87 37.36C27.6048 37.36 27.3504 37.4654 27.1629 37.6529C26.9754 37.8404 26.87 38.0948 26.87 38.36V40.08C23.9781 39.8315 21.2679 38.5659 19.221 36.508C17.1741 34.4501 15.923 31.7332 15.69 28.84H17.39C17.6552 28.84 17.9096 28.7346 18.0971 28.5471C18.2846 28.3596 18.39 28.1052 18.39 27.84C18.39 27.5748 18.2846 27.3204 18.0971 27.1329C17.9096 26.9454 17.6552 26.84 17.39 26.84H15.69C15.933 23.9492 17.1924 21.2381 19.2446 19.1877C21.2967 17.1374 24.009 15.8804 26.9 15.64H26.86ZM28 4.42C28.2652 4.42 28.5196 4.31464 28.7071 4.12711C28.8946 3.93957 29 3.68522 29 3.42V1C29 0.734784 28.8946 0.48043 28.7071 0.292893C28.5196 0.105357 28.2652 0 28 0C27.7348 0 27.4804 0.105357 27.2929 0.292893C27.1054 0.48043 27 0.734784 27 1V3.42C27 3.68522 27.1054 3.93957 27.2929 4.12711C27.4804 4.31464 27.7348 4.42 28 4.42ZM44 10.2C44.1316 10.2008 44.2621 10.1755 44.3839 10.1258C44.5057 10.076 44.6166 10.0027 44.71 9.91L46.4 8.19C46.5534 7.99831 46.6309 7.75691 46.6177 7.51176C46.6046 7.26662 46.5018 7.03488 46.3288 6.86067C46.1558 6.68647 45.9248 6.58197 45.6798 6.5671C45.4347 6.55222 45.1928 6.628 45 6.78L43.27 8.49C43.1276 8.63105 43.031 8.81162 42.9925 9.00829C42.954 9.20496 42.9755 9.40866 43.0542 9.59296C43.1328 9.77727 43.2651 9.93369 43.4337 10.0419C43.6024 10.1502 43.7997 10.2052 44 10.2ZM10.44 10.2C10.6386 10.2012 10.8331 10.1431 10.9986 10.0333C11.1641 9.92353 11.2932 9.76693 11.3694 9.58348C11.4455 9.40004 11.4654 9.19807 11.4263 9.00332C11.3872 8.80857 11.291 8.62987 11.15 8.49L9.44 6.78C9.25302 6.58904 8.99785 6.48019 8.73061 6.47737C8.46337 6.47456 8.20596 6.57802 8.015 6.765C7.82404 6.95198 7.71519 7.20715 7.71237 7.47439C7.70956 7.74163 7.81302 7.99904 8 8.19L9.73 9.91C9.82344 10.0027 9.93426 10.076 10.0561 10.1258C10.1779 10.1755 10.3084 10.2008 10.44 10.2ZM54.94 26.2H52.34C52.0748 26.2 51.8204 26.3054 51.6329 26.4929C51.4454 26.6804 51.34 26.9348 51.34 27.2C51.34 27.4652 51.4454 27.7196 51.6329 27.9071C51.8204 28.0946 52.0748 28.2 52.34 28.2H54.94C55.2052 28.2 55.4596 28.0946 55.6471 27.9071C55.8346 27.7196 55.94 27.4652 55.94 27.2C55.94 26.9348 55.8346 26.6804 55.6471 26.4929C55.4596 26.3054 55.2052 26.2 54.94 26.2ZM3.6 26.2H1C0.734784 26.2 0.48043 26.3054 0.292893 26.4929C0.105357 26.6804 0 26.9348 0 27.2C0 27.4652 0.105357 27.7196 0.292893 27.9071C0.48043 28.0946 0.734784 28.2 1 28.2H3.6C3.86522 28.2 4.11957 28.0946 4.30711 27.9071C4.49464 27.7196 4.6 27.4652 4.6 27.2C4.6 26.9348 4.49464 26.6804 4.30711 26.4929C4.11957 26.3054 3.86522 26.2 3.6 26.2Z" fill="#FA6444"/>
<path id="Vector_3" fill-rule="evenodd" clip-rule="evenodd" d="M26.6 32.82L26.91 32.91V33.91C26.9007 34.0598 26.9331 34.2093 27.0037 34.3417C27.0744 34.4741 27.1804 34.5843 27.31 34.66C27.4428 34.749 27.5969 34.8009 27.7565 34.8106C27.9161 34.8202 28.0753 34.7872 28.2179 34.7149C28.3604 34.6426 28.4812 34.5336 28.5677 34.3992C28.6542 34.2648 28.7033 34.1097 28.71 33.95V32.9L29 32.8C29.5764 32.6158 30.087 32.2684 30.47 31.8C30.7705 31.5007 31.0002 31.1378 31.1421 30.738C31.284 30.3383 31.3345 29.9118 31.29 29.49C31.2094 28.9044 30.9576 28.3556 30.5662 27.9126C30.1748 27.4696 29.6612 27.1521 29.09 27C28.76 26.91 28.42 26.87 28.09 26.79C27.76 26.71 26.98 26.51 26.74 26.07C26.6799 25.9596 26.6489 25.8357 26.65 25.71C26.6413 25.558 26.6674 25.4061 26.7263 25.2657C26.7852 25.1253 26.8754 25.0002 26.99 24.9C27.1925 24.7827 27.4179 24.7104 27.6508 24.6879C27.8838 24.6655 28.1188 24.6935 28.34 24.77C28.704 24.8615 29.0447 25.0285 29.34 25.26C29.4959 25.4065 29.6946 25.4991 29.907 25.5243C30.1193 25.5495 30.3342 25.5059 30.52 25.4C30.6395 25.3168 30.7372 25.2062 30.8051 25.0775C30.8729 24.9487 30.9089 24.8056 30.91 24.66C30.9023 24.4674 30.8537 24.2787 30.7675 24.1063C30.6813 23.9339 30.5595 23.7817 30.41 23.66C29.9966 23.3352 29.5143 23.1094 29 23L28.68 22.91V21.71C28.6859 21.5943 28.6645 21.4788 28.6176 21.3729C28.5707 21.2669 28.4996 21.1735 28.41 21.1C27.94 20.74 26.88 20.87 26.88 21.61V22.86L26.57 22.95C25.8608 23.1512 25.258 23.6212 24.89 24.26C24.5101 24.9154 24.3687 25.6822 24.49 26.43C24.5215 26.7214 24.6166 27.0024 24.7687 27.2529C24.9208 27.5035 25.126 27.7176 25.37 27.88C25.8812 28.1455 26.4314 28.3278 27 28.42C27.3761 28.5021 27.7417 28.6262 28.09 28.79C28.266 28.88 28.4305 28.9908 28.58 29.12C28.762 29.2513 28.9015 29.433 28.9815 29.6427C29.0614 29.8524 29.0783 30.0809 29.03 30.3C28.9379 30.5255 28.7838 30.7203 28.5856 30.8619C28.3874 31.0034 28.1532 31.086 27.91 31.1C27.5946 31.1205 27.2787 31.066 26.9884 30.9408C26.6982 30.8156 26.4417 30.6235 26.24 30.38C26.0534 30.1016 25.7731 29.8993 25.45 29.81C25.3306 29.7829 25.207 29.7805 25.0866 29.8029C24.9662 29.8252 24.8517 29.8719 24.75 29.94C24.6403 30.015 24.5467 30.1111 24.4746 30.2227C24.4025 30.3343 24.3533 30.4592 24.33 30.59C24.3094 30.7491 24.3209 30.9108 24.3638 31.0653C24.4068 31.2199 24.4803 31.3643 24.58 31.49C25.0821 32.1506 25.7948 32.6199 26.6 32.82Z" fill="#FA6444"/>
</g>
</g>
</g>
<defs>
<clipPath id="clip0_2_236">
<rect width="55.94" height="64" fill="white"/>
</clipPath>
</defs>
</svg>
