<svg width="83" height="81" viewBox="0 0 83 81" fill="none" xmlns="http://www.w3.org/2000/svg">
<g id="Frame" clip-path="url(#clip0_2_129)">
<g id="Group">
<path id="Vector" d="M57.3405 64.7964C57.7933 64.7964 58.1051 64.7964 58.4169 64.7964C64.1798 64.7964 69.9427 64.8009 75.7057 64.7941C80.0296 64.7896 82.9815 61.9159 82.9884 57.7032C82.9954 53.991 82.9908 50.281 82.9884 46.5687C82.9884 45.8655 83.0185 45.16 82.97 44.4613C82.9191 43.7153 82.3186 43.2036 81.5979 43.2081C80.875 43.2126 80.3137 43.7265 80.2352 44.4748C80.2098 44.725 80.2236 44.9797 80.2236 45.2344C80.2236 49.3118 80.2236 53.3892 80.2236 57.4666C80.2236 60.5162 78.6068 62.1007 75.4955 62.1007C53.2799 62.1007 31.0644 62.1007 8.8465 62.1007C5.03072 62.1007 2.76713 59.8986 2.76482 56.1863C2.76251 42.577 2.76482 28.9677 2.76482 15.3584C2.76482 12.4283 4.41632 10.8099 7.40519 10.8099C14.8681 10.8077 22.3311 10.8099 29.794 10.8077C30.0827 10.8077 30.3784 10.8347 30.6555 10.7761C31.3531 10.6296 31.785 10.1901 31.7943 9.48462C31.8035 8.73856 31.3669 8.28101 30.6255 8.13451C30.376 8.08492 30.1081 8.10971 29.8494 8.10971C22.3565 8.10971 14.8658 8.10746 7.37285 8.10971C2.93113 8.11197 0.00231218 10.9564 0.00231218 15.2795C2.38657e-06 28.9452 2.38657e-06 42.6108 0.00231218 56.2742C0.00462197 61.3366 3.55246 64.7919 8.74718 64.7941C14.0481 64.7986 19.3514 64.7941 24.6524 64.7964C24.9504 64.7964 25.246 64.8212 25.6225 64.8392C25.4308 65.2089 25.3084 65.4929 25.1444 65.7498C22.2825 70.2577 18.1272 72.6581 12.7085 72.8768C10.0661 72.9827 8.31756 74.5943 8.30139 77.1593C8.29677 77.8061 8.29908 78.453 8.30139 79.0999C8.3037 80.5875 8.71946 80.991 10.2555 80.991C17.2564 80.991 24.2597 80.991 31.2607 80.991C31.5194 80.991 31.7873 81.0158 32.0368 80.9617C32.7367 80.8129 33.1455 80.3801 33.1871 79.6747C33.2263 79.0098 32.7205 78.426 32.0183 78.3178C31.7365 78.275 31.4432 78.293 31.1568 78.293C24.7887 78.293 18.4206 78.293 12.0525 78.293C11.7453 78.293 11.4381 78.293 11.1447 78.293C10.8814 76.3569 11.1424 75.5657 13.4846 75.5702C32.2424 75.6131 51.0002 75.5928 69.7603 75.595C70.049 75.595 70.3377 75.577 70.6241 75.6063C71.3425 75.6807 71.8021 76.0796 71.8991 76.7716C71.9661 77.2562 71.913 77.7566 71.913 78.293C71.4672 78.293 71.123 78.293 70.7812 78.293C59.8882 78.293 48.9976 78.293 38.1046 78.293C37.7882 78.293 37.4625 78.2614 37.1553 78.3178C36.4115 78.4553 35.975 78.9151 35.9819 79.6634C35.9888 80.3711 36.4161 80.8129 37.116 80.9572C37.4209 81.0203 37.7466 80.9887 38.063 80.9887C49.5612 80.991 61.057 80.9887 72.5551 80.9887C72.6706 80.9887 72.7861 80.9887 72.9016 80.9887C74.2089 80.9797 74.6847 80.5267 74.694 79.278C74.6986 78.7167 74.694 78.1533 74.694 77.592C74.694 74.4342 73.1095 72.9016 69.8642 72.8835C69.1251 72.879 68.3467 72.9061 67.6537 72.6987C66.4758 72.3493 65.3347 71.858 64.2052 71.3711C61.1355 70.0503 58.8812 67.9023 57.3405 64.7964Z" fill="white"/>
<path id="Vector_2" d="M35.0141 13.4291C32.2724 13.8776 29.3528 14.3712 26.4263 14.8175C25.6202 14.9415 25.1398 15.3021 24.8603 16.0481C23.8509 18.7371 22.7953 21.408 21.779 24.0947C21.0283 26.0849 21.7906 28.0278 23.6153 28.8731C25.4193 29.707 27.4103 29.0804 28.5352 27.3066C29.1565 26.3261 29.8587 25.3795 30.3345 24.3359C30.8796 23.139 31.7065 22.7311 32.9607 22.9655C33.0162 22.9768 33.0716 22.9903 33.1455 23.0083C33.1778 23.1052 33.2125 23.2089 33.2518 23.3126C33.5151 24.0046 34.0209 24.3945 34.7762 24.275C35.5639 24.1533 35.9519 23.6259 35.9611 22.8438C35.9658 22.535 35.9658 22.2262 35.9635 21.9152C35.9473 20.7499 35.4692 20.2675 34.2935 20.2563C33.1409 20.2472 31.986 20.2856 30.8357 20.2427C29.9834 20.2134 29.436 20.5515 29.0179 21.2638C28.1286 22.7739 27.1816 24.2502 26.2739 25.7514C25.932 26.3149 25.507 26.7296 24.8118 26.4095C24.1142 26.0895 24.165 25.5102 24.4076 24.8926C25.1675 22.952 25.9967 21.0316 26.6227 19.0504C27.0222 17.7859 27.6644 17.2067 29.041 17.0872C31.099 16.9069 33.1293 16.3412 35.1874 16.242C38.2917 16.0932 41.4099 16.1879 44.5212 16.2217C44.9116 16.2262 45.3643 16.3907 45.6738 16.6251C47.584 18.0722 49.4734 19.5485 51.3467 21.0451C51.9287 21.5117 52.5177 21.6514 53.2615 21.5342C55.1925 21.23 57.135 20.9798 59.0752 20.7251C60.1008 20.5898 60.7752 21.0339 60.8492 21.8498C60.9208 22.6184 60.3595 23.1706 59.3917 23.2901C57.2205 23.5583 55.047 23.804 52.8804 24.1082C51.931 24.2412 51.1111 24.1398 50.2888 23.5853C49.1547 22.8212 47.9374 22.1721 46.7479 21.4846C45.2788 20.6349 44.2695 21.1939 44.2625 22.8528C44.2579 24.2187 44.2625 25.5868 44.2625 27.0046C43.8375 27.0046 43.5257 27.0046 43.2116 27.0046C40.4167 27.0046 37.6219 27 34.827 27.0068C33.8038 27.0091 33.358 27.3832 33.1871 28.3637C32.8291 30.4125 32.471 32.4614 32.1454 34.5147C32.0553 35.0849 31.8312 35.3329 31.2053 35.4704C27.8468 36.2119 24.4699 36.6334 21.0168 36.4644C19.8827 36.408 19.3722 36.9467 19.3699 38.0444C19.3607 41.0241 19.3607 44.0061 19.3699 46.9858C19.3745 48.1195 19.9358 48.6627 21.0861 48.5816C23.5945 48.408 25.5394 47.2698 26.752 45.115C27.1123 44.4726 27.5304 44.272 28.2141 44.2112C31.397 43.9362 34.5753 43.5688 37.7628 43.3411C39.1325 43.2442 39.9432 42.7258 40.5022 41.4771C41.3961 39.4801 42.4771 37.562 43.5026 35.565C44.5744 36.0857 45.5976 36.5365 46.5631 37.0819C46.8749 37.2577 47.1821 37.6544 47.2491 37.9948C47.6695 40.1473 48.016 42.3111 48.3948 44.4704C48.5842 45.5455 49.0092 45.8881 50.1502 45.8949C51.446 45.9016 52.7441 45.8746 54.0399 45.9084C55.823 45.9535 57.4099 47.1142 57.7125 48.5973C55.1994 48.5973 52.6979 48.5951 50.1964 48.5996C49.0461 48.6018 48.3994 49.1112 48.4202 49.979C48.441 50.8152 49.0692 51.2953 50.1733 51.2976C53.0836 51.3021 55.994 51.2998 58.9043 51.2976C60.505 51.2976 61.0478 50.698 60.8122 49.1563C60.4565 46.837 59.2508 45.0767 57.1073 43.979C56.6569 43.7491 56.419 43.5012 56.3658 42.976C56.0563 40.0121 55.6798 37.0571 55.3796 34.0932C55.301 33.3246 55.0077 32.7927 54.3448 32.3689C52.0766 30.9264 49.8314 29.4546 47.5863 27.9783C47.3669 27.834 47.0759 27.6019 47.062 27.3945C47.002 26.5763 47.0366 25.7514 47.0366 24.8047C47.8289 25.2645 48.5033 25.5891 49.0992 26.0173C50.2264 26.8288 51.3975 27.0857 52.8134 26.8468C55.308 26.4275 57.8464 26.2585 60.341 25.8438C62.5723 25.4741 63.9651 23.4095 63.5955 21.2953C63.2259 19.1698 61.2257 17.7273 58.999 18.0091C57.2574 18.23 55.5182 18.4711 53.7835 18.7348C53.2014 18.8227 52.7533 18.7033 52.2891 18.3291C50.626 16.9835 48.9491 15.6537 47.2283 14.3802C46.5977 13.9137 45.8332 13.6251 45.1241 13.2532C45.265 12.6221 45.5953 11.7837 45.6138 10.9407C45.6807 7.79194 45.653 4.64318 45.6392 1.49217C45.6346 0.541003 45.1079 0.0338658 44.1401 0.0135803C43.1908 -0.00670515 42.2368 -0.0089591 41.2875 0.0158343C38.0607 0.101484 35.259 2.36895 34.7531 5.4839C34.5198 6.9129 34.5568 8.39825 34.603 9.8543C34.6376 11.0421 34.8686 12.2187 35.0141 13.4291Z" fill="white"/>
<path id="Vector_3" d="M51.2196 56.698C57.4422 56.698 63.6671 56.698 69.8897 56.698C70.1484 56.698 70.4117 56.7137 70.6657 56.6844C71.4141 56.5943 71.9615 56.0037 71.913 55.3118C71.8622 54.5702 71.4234 54.1285 70.6727 54.018C70.3909 53.9752 70.0975 54.0022 69.8088 54.0022C57.3336 54.0022 44.8585 54 32.3833 54.009C31.859 54.009 31.531 53.9301 31.2422 53.4004C30.4939 52.0278 29.2443 51.311 27.6482 51.32C26.0521 51.3268 24.8164 52.0571 24.068 53.4297C23.8001 53.9211 23.5021 54.0158 22.9963 54.0135C20.5179 53.9932 18.0418 54 15.5634 54.0067C14.4708 54.009 13.8403 54.5094 13.8403 55.3524C13.838 56.1953 14.4709 56.7002 15.5611 56.7025C18.0395 56.7092 20.5179 56.716 22.994 56.6935C23.5021 56.689 23.7978 56.7949 24.0634 57.2795C24.8141 58.6499 26.0475 59.3824 27.6436 59.3914C29.2397 59.4005 30.4893 58.6882 31.2446 57.3178C31.5287 56.8039 31.8405 56.6935 32.3787 56.6957C38.6567 56.7047 44.9393 56.698 51.2196 56.698Z" fill="white"/>
<path id="Vector_4" d="M77.4588 37.8302C77.4588 34.3727 77.4611 30.9129 77.4588 27.4553C77.4565 26.1142 77.0061 25.6612 75.671 25.6567C74.0565 25.6522 72.4442 25.6477 70.8297 25.6589C69.654 25.6657 69.162 26.1503 69.162 27.3156C69.1574 34.3163 69.1574 41.3171 69.162 48.3201C69.162 49.4696 69.6656 49.9429 70.8597 49.9497C72.4743 49.9587 74.0865 49.9565 75.7011 49.9497C76.9853 49.9452 77.4565 49.4786 77.4588 48.2051C77.4611 44.7453 77.4588 41.2878 77.4588 37.8302Z" fill="white"/>
<path id="Vector_5" d="M63.2836 8.10743C58.992 8.10743 54.7027 8.10743 50.4111 8.10743C50.1247 8.10743 49.8268 8.08038 49.5496 8.14124C48.852 8.29451 48.434 8.73628 48.427 9.44402C48.4201 10.154 48.8359 10.6025 49.5265 10.7671C49.8268 10.837 50.1571 10.8054 50.4735 10.8054C58.8257 10.8077 67.1756 10.8054 75.5278 10.8077C78.586 10.8077 80.2259 12.4012 80.2259 15.3787C80.2282 23.0781 80.2259 30.7776 80.2259 38.4771C80.2259 38.7588 80.1982 39.0451 80.249 39.3178C80.3853 40.0458 80.8473 40.4831 81.6095 40.4831C82.3717 40.4831 82.8291 40.0413 82.97 39.3178C83.0139 39.0992 82.9908 38.8693 82.9908 38.6439C82.9908 30.8317 82.9954 23.0195 82.9885 15.2074C82.9838 10.988 80.0388 8.11419 75.7218 8.10743C71.5758 8.10292 67.4297 8.10743 63.2836 8.10743Z" fill="white"/>
<path id="Vector_6" d="M9.69189 22.9564C8.798 22.9564 7.90642 22.9384 7.01253 22.9609C6.12326 22.9835 5.54813 23.5289 5.5412 24.2953C5.53658 25.0616 6.11402 25.6341 6.99636 25.6454C8.78183 25.6679 10.5696 25.6679 12.3551 25.6454C13.2374 25.6341 13.8218 25.0729 13.8264 24.311C13.831 23.5447 13.2513 22.9857 12.3712 22.9609C11.4774 22.9384 10.5835 22.9564 9.69189 22.9564Z" fill="white"/>
<path id="Vector_7" d="M9.6503 31.0526C10.5442 31.0526 11.4358 31.0684 12.3297 31.0481C13.2212 31.0278 13.8079 30.4959 13.8264 29.7363C13.8472 28.9452 13.242 28.3704 12.3089 28.3614C10.5511 28.3434 8.79337 28.3434 7.03792 28.3614C6.14404 28.3704 5.56197 28.9091 5.54349 29.671C5.5227 30.4643 6.12556 31.0278 7.05871 31.0481C7.92027 31.0684 8.78413 31.0526 9.6503 31.0526Z" fill="white"/>
<path id="Vector_8" d="M9.60412 36.4508C10.5257 36.4508 11.4473 36.4711 12.3689 36.444C13.249 36.4192 13.8287 35.8557 13.8241 35.0917C13.8195 34.3276 13.2374 33.7686 12.3528 33.7596C10.5673 33.7393 8.77952 33.7371 6.99406 33.7596C6.11172 33.7709 5.53427 34.3411 5.5412 35.1074C5.54582 35.8738 6.12558 36.4192 7.01254 36.4418C7.8764 36.4688 8.74026 36.4508 9.60412 36.4508Z" fill="white"/>
<path id="Vector_9" d="M8.97122 41.8513C9.63413 41.8513 10.297 41.8671 10.9599 41.8468C11.8469 41.8198 12.4313 41.2833 12.4428 40.5215C12.4544 39.7551 11.8769 39.1781 10.9992 39.1623C9.6757 39.1375 8.34988 39.1398 7.02406 39.1601C6.1348 39.1736 5.55273 39.719 5.54118 40.4831C5.52963 41.2765 6.13018 41.8243 7.07026 41.8491C7.70314 41.8648 8.33603 41.8513 8.97122 41.8513Z" fill="white"/>
<path id="Vector_10" d="M8.3776 47.2427C8.83956 47.2427 9.30152 47.2743 9.75885 47.236C10.5257 47.1728 11.0546 46.6094 11.0593 45.9084C11.0639 45.2052 10.5396 44.6079 9.77733 44.5718C8.80029 44.5267 7.81863 44.5267 6.84159 44.5696C6.07243 44.6034 5.54811 45.1871 5.54349 45.8926C5.53887 46.5936 6.06319 47.1728 6.82542 47.2337C7.33819 47.2765 7.86021 47.2427 8.3776 47.2427Z" fill="white"/>
<path id="Vector_11" d="M57.3405 64.7964C58.8789 67.9001 61.1355 70.0504 64.2029 71.3757C65.3324 71.8648 66.4735 72.3539 67.6515 72.7033C68.3444 72.9084 69.1228 72.8836 69.8619 72.8881C73.1072 72.9061 74.6917 74.4366 74.6917 77.5966C74.6917 78.1578 74.6963 78.7213 74.6917 79.2826C74.6801 80.5335 74.2066 80.9843 72.8993 80.9933C72.7838 80.9933 72.6683 80.9933 72.5528 80.9933C61.0547 80.9933 49.5589 80.9933 38.0607 80.9933C37.7443 80.9933 37.4186 81.0249 37.1137 80.9617C36.4162 80.8152 35.9865 80.3757 35.9796 79.668C35.9727 78.9197 36.4092 78.4621 37.153 78.3224C37.4602 78.266 37.7859 78.2976 38.1023 78.2976C48.9953 78.2976 59.8859 78.2976 70.7789 78.2976C71.1208 78.2976 71.4649 78.2976 71.9107 78.2976C71.9107 77.7611 71.9661 77.2608 71.8968 76.7762C71.7998 76.0842 71.3425 75.683 70.6218 75.6109C70.3354 75.5816 70.0467 75.5996 69.758 75.5996C51.0002 75.5996 32.2424 75.6176 13.4822 75.5748C11.1401 75.5703 10.8791 76.3614 11.1424 78.2976C11.4358 78.2976 11.743 78.2976 12.0502 78.2976C18.4183 78.2976 24.7864 78.2976 31.1545 78.2976C31.4432 78.2976 31.7342 78.2795 32.016 78.3224C32.7182 78.4306 33.224 79.0143 33.1848 79.6792C33.1432 80.3847 32.7343 80.8197 32.0345 80.9662C31.785 81.0181 31.5171 80.9956 31.2584 80.9956C24.2574 80.9978 17.2541 80.9978 10.2532 80.9956C8.71715 80.9956 8.3037 80.5921 8.29908 79.1045C8.29677 78.4576 8.29446 77.8107 8.29908 77.1638C8.31524 74.5989 10.0638 72.9873 12.7062 72.8813C18.1249 72.6627 22.2802 70.2623 25.1421 65.7544C25.3061 65.4974 25.4285 65.2134 25.6202 64.8438C25.2437 64.8257 24.948 64.801 24.6501 64.801C19.3491 64.7987 14.0458 64.8032 8.74487 64.7987C3.55015 64.7942 0.00230979 61.3389 0 56.2788C0 42.6109 0 28.9452 0.00230979 15.2795C0.00230979 10.9564 2.93112 8.10971 7.37516 8.10971C14.8681 8.10746 22.3588 8.10971 29.8517 8.10971C30.1104 8.10971 30.3784 8.08492 30.6278 8.13451C31.3693 8.28327 31.8058 8.73857 31.7966 9.48462C31.7873 10.1901 31.3577 10.6296 30.6578 10.7761C30.3807 10.8347 30.085 10.8077 29.7963 10.8077C22.3334 10.8099 14.8704 10.8077 7.4075 10.8099C4.41863 10.8099 2.76713 12.4283 2.76713 15.3584C2.76713 28.9677 2.76713 42.577 2.76713 56.1864C2.76713 59.8986 5.03072 62.1007 8.84881 62.1007C31.0644 62.1007 53.2799 62.1007 75.4978 62.1007C78.6091 62.1007 80.2259 60.5162 80.2259 57.4666C80.2259 53.3892 80.2259 49.3118 80.2259 45.2345C80.2259 44.982 80.2121 44.7273 80.2375 44.4749C80.316 43.7266 80.8796 43.2127 81.6003 43.2082C82.3209 43.2036 82.9215 43.7153 82.9723 44.4613C83.0208 45.1623 82.9908 45.8656 82.9908 46.5688C82.9908 50.281 82.9977 53.991 82.9908 57.7033C82.9815 61.9159 80.0296 64.7919 75.708 64.7942C69.9451 64.801 64.1821 64.7964 58.4192 64.7964C58.1051 64.7964 57.7956 64.7964 57.3405 64.7964ZM21.9153 72.8475C35.058 72.8475 47.9628 72.8475 60.9415 72.8475C60.8329 72.7281 60.7937 72.656 60.7313 72.6154C57.8787 70.7897 55.8276 68.3239 54.4903 65.2675C54.3933 65.0466 53.996 64.819 53.7373 64.8167C45.5906 64.7942 37.444 64.801 29.2951 64.7852C28.8077 64.7852 28.5929 64.943 28.4104 65.3667C28.0847 66.1128 27.7175 66.8498 27.2925 67.5463C25.9875 69.6762 24.2251 71.3847 21.9153 72.8475Z" fill="#13B237"/>
<path id="Vector_12" d="M35.0141 13.4289C34.8663 12.2208 34.6376 11.042 34.6007 9.8587C34.5568 8.40265 34.5175 6.9173 34.7508 5.4883C35.259 2.37335 38.0584 0.105879 41.2852 0.0202296C42.2345 -0.00456376 43.1885 -0.00456376 44.1378 0.0179757C45.1033 0.0382612 45.6322 0.545398 45.6369 1.49656C45.6507 4.64532 45.6784 7.79634 45.6115 10.9451C45.593 11.7881 45.2627 12.6265 45.1218 13.2576C45.8286 13.6295 46.5954 13.918 47.226 14.3846C48.9468 15.6581 50.6237 16.9902 52.2868 18.3335C52.751 18.7077 53.1991 18.8271 53.7812 18.7392C55.5158 18.4778 57.2551 18.2344 58.9967 18.0135C61.2233 17.7317 63.2236 19.1742 63.5932 21.2997C63.9605 23.4139 62.5676 25.4785 60.3387 25.8482C57.8441 26.2629 55.3057 26.4319 52.8111 26.8512C51.3952 27.0901 50.2241 26.8331 49.0969 26.0217C48.501 25.5935 47.8265 25.2689 47.0343 24.8091C47.0343 25.7558 46.9973 26.5807 47.0597 27.3989C47.0759 27.6062 47.3669 27.8407 47.584 27.9827C49.8291 29.459 52.0766 30.9308 54.3425 32.3733C55.0077 32.7948 55.301 33.3268 55.3773 34.0976C55.6798 37.0615 56.054 40.0187 56.3635 42.9804C56.419 43.5033 56.6569 43.7512 57.105 43.9834C59.2485 45.0788 60.4565 46.8391 60.8099 49.1607C61.0455 50.7024 60.5027 51.2997 58.902 51.302C55.9917 51.3042 53.0813 51.3042 50.171 51.302C49.0669 51.2997 48.4363 50.8196 48.4179 49.9834C48.3971 49.1156 49.0461 48.6062 50.1941 48.604C52.6956 48.5995 55.1948 48.6017 57.7102 48.6017C57.4076 47.1186 55.8207 45.9601 54.0376 45.9128C52.7418 45.879 51.4437 45.9083 50.1479 45.8993C49.0069 45.8925 48.5818 45.5499 48.3924 44.4748C48.0136 42.3155 47.6649 40.1517 47.2468 37.9992C47.1798 37.6588 46.8726 37.2621 46.5608 37.0863C45.593 36.5409 44.572 36.0901 43.5003 35.5694C42.4748 37.5664 41.3915 39.4845 40.4999 41.4815C39.9409 42.7325 39.1302 43.2486 37.7605 43.3455C34.573 43.5709 31.397 43.9383 28.2118 44.2156C27.5281 44.2742 27.11 44.4748 26.7497 45.1194C25.537 47.2742 23.5945 48.4124 21.0838 48.586C19.9335 48.6648 19.3722 48.1239 19.3676 46.9902C19.3583 44.0104 19.3583 41.0285 19.3676 38.0488C19.3722 36.9488 19.8827 36.4124 21.0145 36.4688C24.4653 36.6401 27.8445 36.2163 31.203 35.4748C31.8289 35.3373 32.053 35.0893 32.1431 34.5191C32.4687 32.4657 32.8267 30.4169 33.1848 28.3681C33.3557 27.3876 33.8015 27.0157 34.8247 27.0112C37.6196 27.0022 40.4144 27.009 43.2093 27.009C43.5211 27.009 43.8352 27.009 44.2602 27.009C44.2602 25.5912 44.2556 24.2231 44.2602 22.8572C44.2672 21.1983 45.2765 20.6416 46.7456 21.489C47.9351 22.1765 49.1524 22.8256 50.2865 23.5897C51.1088 24.1442 51.9287 24.2456 52.8781 24.1126C55.0446 23.8084 57.2182 23.5627 59.3894 23.2945C60.3572 23.175 60.9185 22.6228 60.8468 21.8542C60.7706 21.036 60.0985 20.5942 59.0729 20.7295C57.1327 20.9842 55.1925 21.2343 53.2592 21.5386C52.5154 21.6558 51.9264 21.5161 51.3444 21.0495C49.4734 19.5529 47.584 18.0766 45.6715 16.6295C45.362 16.3951 44.907 16.2306 44.5189 16.2261C41.4076 16.1945 38.2894 16.0976 35.185 16.2464C33.127 16.3455 31.0967 16.9113 29.0387 17.0916C27.6621 17.2111 27.0176 17.7926 26.6203 19.0548C25.9944 21.036 25.1629 22.9564 24.4052 24.897C24.165 25.5146 24.1142 26.0939 24.8095 26.4139C25.5047 26.734 25.9297 26.3192 26.2716 25.7558C27.1793 24.2569 28.1263 22.7783 29.0156 21.2682C29.4337 20.5582 29.9811 20.2178 30.8334 20.2471C31.9837 20.2877 33.1386 20.2494 34.2912 20.2606C35.4668 20.2697 35.945 20.752 35.9611 21.9195C35.9658 22.2283 35.9634 22.5371 35.9588 22.8482C35.9496 23.628 35.5592 24.1555 34.7739 24.2794C34.0186 24.3966 33.5128 24.0067 33.2494 23.317C33.2102 23.2133 33.1778 23.1074 33.1432 23.0127C33.0693 22.9947 33.0138 22.9812 32.9584 22.9699C31.7042 22.7355 30.8773 23.1434 30.3322 24.3403C29.8564 25.3839 29.1542 26.3328 28.5328 27.311C27.4103 29.0826 25.4169 29.7114 23.613 28.8775C21.7883 28.0322 21.026 26.0893 21.7767 24.0991C22.7907 21.4124 23.8486 18.7415 24.858 16.0525C25.1375 15.3042 25.6179 14.9436 26.424 14.8219C29.3528 14.3711 32.2724 13.8752 35.0141 13.4289ZM53.6195 43.1675C53.3054 40.3478 53.0143 37.6115 52.6771 34.8797C52.6471 34.6318 52.363 34.3591 52.1251 34.2013C49.9816 32.7813 47.8242 31.3816 45.6646 29.9842C45.4798 29.8647 45.2581 29.7204 45.0502 29.7182C41.9735 29.7002 38.8946 29.7069 35.7925 29.7069C35.7302 29.9774 35.6678 30.1938 35.6308 30.4124C35.3213 32.2404 35.0234 34.0706 34.7092 35.8985C34.4321 37.5033 34.2357 37.6724 32.605 37.9631C30.972 38.2561 29.3459 38.5739 27.7337 38.8782C27.7337 39.8091 27.7337 40.6611 27.7337 41.5198C27.9438 41.5198 28.0894 41.5311 28.2303 41.5176C31.2676 41.2268 34.305 40.9496 37.3378 40.6183C37.6242 40.5867 37.9753 40.2666 38.1208 39.9917C39.2803 37.7963 40.389 35.5762 41.5301 33.3696C42.0428 32.3801 42.7057 32.1705 43.7313 32.6596C45.1518 33.338 46.5284 34.1201 47.9882 34.7039C49.2979 35.2291 49.8592 36.063 50.0093 37.4177C50.2218 39.338 50.6376 41.2358 50.9725 43.1652C51.8548 43.1675 52.6817 43.1675 53.6195 43.1675ZM37.3516 8.14344C37.3516 9.13518 37.3216 10.0322 37.3586 10.9293C37.4163 12.2817 38.5158 13.3816 39.8693 13.4988C41.2598 13.6183 42.6272 12.6851 42.8051 11.317C42.9413 10.2802 42.8328 9.21181 42.8328 8.1457C40.9896 8.14344 39.2156 8.14344 37.3516 8.14344ZM22.1601 45.5522C24.4122 44.9165 25.3523 42.613 24.8048 39.2073C23.934 39.2073 23.0609 39.2073 22.1601 39.2073C22.1601 41.335 22.1601 43.4109 22.1601 45.5522ZM42.8443 2.74976C40.0125 2.5762 38.1185 3.55667 37.7374 5.35081C39.4374 5.35081 41.1351 5.35081 42.8443 5.35081C42.8443 4.4605 42.8443 3.6333 42.8443 2.74976Z" fill="#13B237"/>
<path id="Vector_13" d="M51.2196 56.698C44.9393 56.698 38.6566 56.7025 32.3763 56.6889C31.8381 56.6867 31.5263 56.7971 31.2422 57.311C30.4869 58.6814 29.2373 59.3937 27.6413 59.3847C26.0452 59.3756 24.8118 58.6431 24.0611 57.2727C23.7955 56.7881 23.5021 56.6822 22.9916 56.6867C20.5132 56.7092 18.0371 56.7002 15.5587 56.6957C14.4685 56.6934 13.838 56.1863 13.838 55.3456C13.8403 54.5026 14.4685 54.0022 15.5611 54C18.0395 53.9955 20.5156 53.9865 22.994 54.0067C23.4998 54.0113 23.7978 53.9143 24.0657 53.423C24.8118 52.0503 26.0498 51.32 27.6459 51.3133C29.2419 51.3065 30.4938 52.0233 31.2399 53.3937C31.5286 53.9233 31.8566 54.0022 32.3809 54.0022C44.8561 53.9932 57.3313 53.9955 69.8065 53.9955C70.0952 53.9955 70.3885 53.9707 70.6703 54.0113C71.421 54.1217 71.8576 54.5635 71.9107 55.305C71.9592 55.9992 71.4118 56.5875 70.6634 56.6777C70.407 56.7092 70.146 56.6912 69.8873 56.6912C63.667 56.698 57.4422 56.698 51.2196 56.698ZM29.041 55.3163C29.0248 54.5928 28.3966 53.9977 27.6551 54.0022C26.9137 54.0067 26.2946 54.6108 26.2877 55.3343C26.2808 56.0939 26.9437 56.7228 27.7152 56.6912C28.4566 56.6619 29.0572 56.0398 29.041 55.3163Z" fill="#13B237"/>
<path id="Vector_14" d="M77.4588 37.8302C77.4588 41.2878 77.4612 44.7476 77.4565 48.2051C77.4542 49.4786 76.983 49.9429 75.6988 49.9497C74.0842 49.9564 72.472 49.9587 70.8574 49.9497C69.6633 49.9429 69.1621 49.4673 69.1597 48.3201C69.1551 41.3193 69.1551 34.3186 69.1597 27.3156C69.1597 26.1503 69.6517 25.6657 70.8274 25.6589C72.442 25.6499 74.0542 25.6521 75.6688 25.6567C77.0038 25.6612 77.4542 26.1142 77.4565 27.4553C77.4612 30.9129 77.4588 34.3704 77.4588 37.8302ZM71.9754 28.3929C71.9754 29.3238 71.9754 30.1533 71.9754 30.9985C72.8947 30.9985 73.7655 30.9985 74.6293 30.9985C74.6293 30.0924 74.6293 29.2427 74.6293 28.3929C73.7147 28.3929 72.8623 28.3929 71.9754 28.3929ZM74.6594 33.8182C73.7008 33.8182 72.8277 33.8182 71.9685 33.8182C71.9685 34.7153 71.9685 35.5447 71.9685 36.4012C72.8831 36.4012 73.7539 36.4012 74.6594 36.4012C74.6594 35.5222 74.6594 34.6927 74.6594 33.8182ZM74.6524 39.2096C73.7147 39.2096 72.8439 39.2096 71.9939 39.2096C71.9939 40.1202 71.9939 40.9722 71.9939 41.8062C72.9132 41.8062 73.7655 41.8062 74.6524 41.8062C74.6524 40.9339 74.6524 40.1044 74.6524 39.2096ZM71.9892 44.5875C71.9892 45.5094 71.9892 46.3591 71.9892 47.1818C72.9247 47.1818 73.7978 47.1818 74.6455 47.1818C74.6455 46.2825 74.6455 45.4508 74.6455 44.5875C73.7493 44.5875 72.897 44.5875 71.9892 44.5875Z" fill="#13B237"/>
<path id="Vector_15" d="M63.2837 8.1075C67.4297 8.1075 71.5781 8.10299 75.7242 8.10975C80.0412 8.11651 82.9862 10.9903 82.9908 15.2097C82.9977 23.0218 82.9931 30.834 82.9931 38.6462C82.9931 38.8716 83.0139 39.1015 82.9723 39.3201C82.8291 40.0436 82.3741 40.4854 81.6119 40.4854C80.8496 40.4854 80.3877 40.0481 80.2514 39.3201C80.2006 39.0474 80.2283 38.7589 80.2283 38.4794C80.2283 30.7799 80.2283 23.0804 80.2283 15.381C80.2283 12.4035 78.5907 10.81 75.5302 10.81C67.178 10.81 58.8281 10.81 50.4759 10.8077C50.1594 10.8077 49.8314 10.8393 49.5288 10.7694C48.8382 10.6071 48.4224 10.1563 48.4294 9.44634C48.4363 8.7386 48.8544 8.29683 49.5519 8.14356C49.8268 8.0827 50.1248 8.10975 50.4135 8.10975C54.7005 8.1075 58.9921 8.1075 63.2837 8.1075Z" fill="#13B237"/>
<path id="Vector_16" d="M9.69189 22.9564C10.5858 22.9564 11.4797 22.9384 12.3712 22.9609C13.2536 22.9857 13.831 23.5447 13.8264 24.311C13.8218 25.0729 13.2374 25.6341 12.3551 25.6454C10.5696 25.6657 8.78183 25.6679 6.99636 25.6454C6.11633 25.6341 5.53658 25.0616 5.5412 24.2953C5.54582 23.5289 6.12326 22.9835 7.01253 22.9609C7.90411 22.9384 8.798 22.9564 9.69189 22.9564Z" fill="#13B237"/>
<path id="Vector_17" d="M9.6503 31.0526C8.78644 31.0526 7.92027 31.0684 7.05871 31.0481C6.12556 31.0278 5.5227 30.4643 5.54349 29.671C5.56197 28.9091 6.14635 28.3704 7.03792 28.3614C8.79568 28.3434 10.5534 28.3434 12.3089 28.3614C13.242 28.3704 13.8472 28.9452 13.8264 29.7363C13.8079 30.4959 13.2212 31.0278 12.3297 31.0481C11.4358 31.0684 10.5419 31.0526 9.6503 31.0526Z" fill="#13B237"/>
<path id="Vector_18" d="M9.60412 36.4508C8.74025 36.4508 7.87408 36.4688 7.01253 36.4463C6.12557 36.4215 5.54582 35.876 5.5412 35.112C5.53658 34.3456 6.11402 33.7754 6.99405 33.7641C8.77952 33.7416 10.5673 33.7438 12.3528 33.7641C13.2374 33.7754 13.8195 34.3321 13.8241 35.0962C13.8287 35.8603 13.249 36.4238 12.3689 36.4485C11.4496 36.4711 10.5257 36.4508 9.60412 36.4508Z" fill="#13B237"/>
<path id="Vector_19" d="M8.97122 41.8513C8.33834 41.8513 7.70315 41.8648 7.07026 41.849C6.13018 41.8243 5.52963 41.2765 5.54118 40.4831C5.55273 39.719 6.1348 39.1758 7.02407 39.1601C8.34989 39.1398 9.67571 39.1353 10.9992 39.1623C11.8746 39.1804 12.4544 39.7574 12.4428 40.5215C12.4313 41.2833 11.8469 41.8197 10.96 41.8468C10.297 41.8671 9.63413 41.8513 8.97122 41.8513Z" fill="#13B237"/>
<path id="Vector_20" d="M8.37762 47.2426C7.86023 47.2426 7.33822 47.2764 6.82313 47.2336C6.0609 47.1705 5.53658 46.5935 5.5412 45.8925C5.54582 45.187 6.07245 44.6032 6.8393 44.5694C7.81634 44.5266 8.798 44.5243 9.77504 44.5717C10.5373 44.6077 11.0616 45.2073 11.057 45.9083C11.0524 46.6093 10.5234 47.1727 9.75657 47.2359C9.30154 47.2742 8.83958 47.2426 8.37762 47.2426Z" fill="#13B237"/>
<path id="Vector_21" d="M21.9153 72.8475C24.2251 71.3847 25.9874 69.6762 27.2902 67.5462C27.7152 66.8498 28.0824 66.115 28.4081 65.3667C28.5929 64.9429 28.8077 64.7852 29.2928 64.7852C37.4394 64.8009 45.586 64.7919 53.735 64.8167C53.9936 64.8167 54.3909 65.0466 54.4879 65.2675C55.8253 68.3239 57.8764 70.7897 60.729 72.6154C60.7914 72.6559 60.8329 72.7281 60.9392 72.8475C47.9628 72.8475 35.058 72.8475 21.9153 72.8475Z" fill="white"/>
<path id="Vector_22" d="M53.6194 43.1675C52.6817 43.1675 51.8571 43.1675 50.9701 43.1675C50.6375 41.2381 50.2194 39.3403 50.0069 37.42C49.8568 36.0631 49.2955 35.2291 47.9859 34.7062C46.5261 34.1224 45.1518 33.3403 43.7289 32.6619C42.7034 32.1728 42.0405 32.3824 41.5277 33.3719C40.3867 35.5762 39.278 37.7964 38.1185 39.994C37.9729 40.2689 37.6219 40.589 37.3354 40.6206C34.3027 40.9519 31.2653 41.2291 28.228 41.5199C28.0871 41.5334 27.9415 41.5221 27.7314 41.5221C27.7314 40.6634 27.7314 39.8091 27.7314 38.8805C29.3436 38.5762 30.972 38.2584 32.6027 37.9654C34.2334 37.6724 34.4297 37.5034 34.7069 35.9008C35.021 34.0729 35.319 32.2426 35.6285 30.4147C35.6655 30.1961 35.7278 29.9819 35.7902 29.7092C38.8922 29.7092 41.9712 29.7047 45.0478 29.7205C45.2534 29.7227 45.4751 29.867 45.6622 29.9864C47.8219 31.3839 49.9792 32.7836 52.1227 34.2036C52.3606 34.3614 52.6447 34.6341 52.6747 34.882C53.0143 37.6115 53.3053 40.3478 53.6194 43.1675Z" fill="white"/>
<path id="Vector_23" d="M37.3516 8.14355C39.2156 8.14355 40.9895 8.14355 42.8327 8.14355C42.8327 9.21193 42.9413 10.278 42.805 11.3149C42.6272 12.683 41.2598 13.6161 39.8693 13.4967C38.5158 13.3795 37.4163 12.2795 37.3586 10.9272C37.3216 10.0324 37.3516 9.13529 37.3516 8.14355Z" fill="white"/>
<path id="Vector_24" d="M22.1601 45.5523C22.1601 43.411 22.1601 41.3374 22.1601 39.2074C23.0609 39.2074 23.934 39.2074 24.8048 39.2074C25.3522 42.6131 24.4122 44.9167 22.1601 45.5523Z" fill="white"/>
<path id="Vector_25" d="M42.8443 2.74978C42.8443 3.63332 42.8443 4.46052 42.8443 5.35083C41.1351 5.35083 39.4374 5.35083 37.7374 5.35083C38.1185 3.55669 40.0125 2.57397 42.8443 2.74978Z" fill="white"/>
<path id="Vector_26" d="M29.041 55.3162C29.0571 56.0375 28.4566 56.6618 27.7152 56.6911C26.9437 56.7227 26.2808 56.0938 26.2877 55.3343C26.2946 54.6108 26.9137 54.0067 27.6551 54.0022C28.3965 53.9977 29.0248 54.5927 29.041 55.3162Z" fill="white"/>
<path id="Vector_27" d="M71.9754 28.3929C72.8646 28.3929 73.7146 28.3929 74.6293 28.3929C74.6293 29.2427 74.6293 30.0924 74.6293 30.9985C73.7655 30.9985 72.8947 30.9985 71.9754 30.9985C71.9754 30.1555 71.9754 29.3238 71.9754 28.3929Z" fill="white"/>
<path id="Vector_28" d="M74.6594 33.8181C74.6594 34.6927 74.6594 35.5221 74.6594 36.4012C73.7562 36.4012 72.8854 36.4012 71.9684 36.4012C71.9684 35.5447 71.9684 34.7129 71.9684 33.8181C72.83 33.8181 73.7008 33.8181 74.6594 33.8181Z" fill="white"/>
<path id="Vector_29" d="M74.6524 39.2096C74.6524 40.1044 74.6524 40.9338 74.6524 41.8061C73.7631 41.8061 72.9131 41.8061 71.9938 41.8061C71.9938 40.9699 71.9938 40.1202 71.9938 39.2096C72.8438 39.2096 73.7146 39.2096 74.6524 39.2096Z" fill="white"/>
<path id="Vector_30" d="M71.9892 44.5875C72.897 44.5875 73.7493 44.5875 74.6455 44.5875C74.6455 45.453 74.6455 46.2825 74.6455 47.1818C73.7955 47.1818 72.9247 47.1818 71.9892 47.1818C71.9892 46.3591 71.9892 45.5094 71.9892 44.5875Z" fill="white"/>
</g>
</g>
<defs>
<clipPath id="clip0_2_129">
<rect width="83" height="81" fill="white"/>
</clipPath>
</defs>
</svg>
