<svg width="77" height="81" viewBox="0 0 77 81" fill="none" xmlns="http://www.w3.org/2000/svg">
<g id="Layer_x0020_1">
<path id="Vector" d="M38.6079 18.6543L73.7684 0.188L74.5595 1.67543L73.7684 0.188C74.0275 0.0544907 74.3167 -0.00984529 74.6081 0.00122045C74.8994 0.0122862 75.1829 0.0983787 75.4312 0.251163C75.6794 0.403948 75.8841 0.618248 76.0252 0.873314C76.1664 1.12838 76.2393 1.41557 76.2369 1.70708V70.3031C76.2336 70.6027 76.1509 70.896 75.9972 71.1531C75.8436 71.4102 75.6245 71.622 75.3622 71.7668C75.1 71.9116 74.804 71.9842 74.5046 71.9773C74.2051 71.9703 73.9128 71.8841 73.6576 71.7273L38.6079 53.3242H1.9759C1.53233 53.3201 1.10809 53.1421 0.79442 52.8284C0.480752 52.5147 0.302711 52.0905 0.298584 51.6469V20.3475C0.298584 19.4139 1.0423 18.6543 1.9759 18.6543H38.6079ZM72.8664 4.46042L39.9055 21.7874C39.6395 21.9529 39.3326 22.0406 39.0194 22.0406H3.66905V49.9379H38.9877C39.2567 49.9379 39.5415 50.0012 39.7947 50.1278L39.0035 51.6311L39.7947 50.1436L72.8664 67.5023V4.46042Z" fill="#4756DF"/>
<path id="Vector_2" d="M14.3501 49.938H30.8226L30.3005 52.0267L23.5279 79.7183L23.2114 81H5.40967L5.93185 78.9271L12.7044 51.2355L13.0209 49.938H14.3501ZM26.5344 53.3084H15.6635L9.69791 77.6296H20.5688L26.5344 53.3084ZM16.154 25.4902H30.7594V28.8765H16.154V25.4902Z" fill="#4756DF"/>
</g>
</svg>
